# File created by Blade
# Date/Time:  Tue Sep 30 19:31:45 2014
#---------------------------------------------------------
:version 1.10
:name HOM
:units
  mass 1.0
  length 1.000000
  angle deg
:documentation
     Acclaim Skeleton File
:root
   axis xyz
   order TX TY TZ RX RY RZ
   position 0.000000 0.000000 0.000000
   orientation 0 0 0
:bonedata
   begin
      id 1
      name Spine_dum
      direction 0.000000 1.000000 0.000000
      length 3.241213
      axis 0.0 0.0 0.0 xyz
   end
   begin
      id 2
      name LeftUpLeg_dum
      direction 1.000000 0.000000 0.000000
      length 3.434019
      axis 0.0 0.0 0.0 xyz
   end
   begin
      id 3
      name RightUpLeg_dum
      direction -1.000000 0.000000 0.000000
      length 3.434019
      axis 0.0 0.0 0.0 xyz
   end
   begin
      id 4
      name Spine
      direction 0.000000 1.000000 0.000000
      length 0.000000
      axis 0.0 0.0 0.0 xyz
      dof rx ry rz
   end
   begin
      id 5
      name Spine_dum1
      direction 0.000000 1.000000 0.000000
      length 18.382958
      axis 0.0 0.0 0.0 xyz
   end
   begin
      id 6
      name Spine_dum2
      direction 0.000000 1.000000 0.000000
      length 12.828261
      axis 0.0 0.0 0.0 xyz
   end
   begin
      id 7
      name Spine_dum3
      direction 0.000000 1.000000 0.000000
      length 12.828261
      axis 0.0 0.0 0.0 xyz
   end
   begin
      id 8
      name Head
      direction 0.000000 1.000000 0.000000
      length 4.527550
      axis 0.0 0.0 0.0 xyz
      dof rx ry rz
   end
   begin
      id 9
      name LeftShoulder
      direction 1.000000 0.000000 0.000000
      length 7.748055
      axis 0.0 0.0 -90.0 xyz
      dof rx ry rz
   end
   begin
      id 10
      name LeftArm
      direction 1.000000 0.000000 0.000000
      length 10.635614
      axis 0.0 0.0 -90.0 xyz
      dof rx ry rz
   end
   begin
      id 11
      name LeftForeArm
      direction 1.000000 0.000000 0.000000
      length 8.346755
      axis 0.0 0.0 -90.0 xyz
      dof ry rz rx
   end
   begin
      id 12
      name LeftHand
      direction 0.000000 0.000000 0.000000
      length 0.000000
      axis 0.0 0.0 -90.0 xyz
      dof rx ry rz
   end
   begin
      id 13
      name LeftHand_dum1
      direction 0.000000 0.000000 0.000000
      length 0.000000
      axis 0.0 0.0 -90.0 xyz
   end
   begin
      id 14
      name LeftHand_dum2
      direction 1.000000 0.000000 0.000000
      length 3.937000
      axis 0.0 0.0 -90.0 xyz
   end
   begin
      id 15
      name LeftHandThumb1
      direction 0.000000 0.000000 1.000000
      length 3.937000
      axis 0.0 0.0 -90.0 xyz
      dof rx rz ry
   end
   begin
      id 16
      name RightShoulder
      direction -1.000000 0.000000 0.000000
      length 7.748055
      axis 0.0 0.0 90.0 xyz
      dof rx ry rz
   end
   begin
      id 17
      name RightArm
      direction -1.000000 0.000000 0.000000
      length 10.635614
      axis 0.0 0.0 90.0 xyz
      dof rx ry rz
   end
   begin
      id 18
      name RightForeArm
      direction -1.000000 0.000000 0.000000
      length 8.346755
      axis 0.0 0.0 90.0 xyz
      dof ry rz rx
   end
   begin
      id 19
      name RightHand
      direction 0.000000 0.000000 0.000000
      length 0.000000
      axis 0.0 0.0 90.0 xyz
      dof rx ry rz
   end
   begin
      id 20
      name RightHand_dum1
      direction 0.000000 0.000000 0.000000
      length 0.000000
      axis 0.0 0.0 90.0 xyz
   end
   begin
      id 21
      name RightHand_dum2
      direction -1.000000 0.000000 0.000000
      length 3.937000
      axis 0.0 0.0 90.0 xyz
   end
   begin
      id 22
      name RightHandThumb1
      direction 0.000000 0.000000 1.000000
      length 3.937000
      axis 0.0 0.0 90.0 xyz
      dof rx rz ry
   end
   begin
      id 23
      name LeftUpLeg
      direction 0.000000 -1.000000 0.000000
      length 15.713025
      axis 0.0 0.0 0.0 xyz
      dof rx ry rz
   end
   begin
      id 24
      name LeftLeg
      direction 0.000000 -1.000000 0.000000
      length 14.435119
      axis 0.0 0.0 0.0 xyz
      dof rx ry rz
   end
   begin
      id 25
      name LeftFoot
      direction 0.000000 -0.258819 0.965926
      length 4.938895
      axis 15.0 0.0 0.0 xyz
      dof rx ry rz
   end
   begin
      id 26
      name LeftToeBase
      direction 0.000000 0.000000 1.000000
      length 2.952750
      axis 0.0 0.0 0.0 xyz
      dof rx ry rz
   end
   begin
      id 27
      name RightUpLeg
      direction 0.000000 -1.000000 0.000000
      length 15.713025
      axis 0.0 0.0 0.0 xyz
      dof rx ry rz
   end
   begin
      id 28
      name RightLeg
      direction 0.000000 -1.000000 0.000000
      length 14.435119
      axis 0.0 0.0 0.0 xyz
      dof rx ry rz
   end
   begin
      id 29
      name RightFoot
      direction 0.000000 -0.258819 0.965926
      length 4.938895
      axis 15.0 0.0 0.0 xyz
      dof rx ry rz
   end
   begin
      id 30
      name RightToeBase
      direction 0.000000 0.000000 1.000000
      length 2.952750
      axis 0.0 0.0 0.0 xyz
      dof rx ry rz
   end
:hierarchy
   begin
      root Spine_dum LeftUpLeg_dum RightUpLeg_dum
      Spine_dum Spine
      LeftUpLeg_dum LeftUpLeg
      RightUpLeg_dum RightUpLeg
      Spine Spine_dum1 Spine_dum2 Spine_dum3
      Spine_dum1 Head
      Spine_dum2 LeftShoulder
      Spine_dum3 RightShoulder
      LeftShoulder LeftArm
      LeftArm LeftForeArm
      LeftForeArm LeftHand
      LeftHand LeftHand_dum1 LeftHand_dum2
      LeftHand_dum1 LeftHandThumb1
      RightShoulder RightArm
      RightArm RightForeArm
      RightForeArm RightHand
      RightHand RightHand_dum1 RightHand_dum2
      RightHand_dum1 RightHandThumb1
      LeftUpLeg LeftLeg
      LeftLeg LeftFoot
      LeftFoot LeftToeBase
      RightUpLeg RightLeg
      RightLeg RightFoot
      RightFoot RightToeBase
   end

# File created by Blade
# Date/Time:  Mon Sep 22 19:00:17 2014
# Frame Rate: 120.000 fps
#------------------------------------------------------
:FULLY-SPECIFIED
:DEGREES
1277
root -0.695357 32.786642 -3.692162 37.991038 -4.118074 0.410340
Spine -44.755276 -4.216037 1.626584
Head 8.806876 -3.888224 -7.027372
LeftShoulder -7.309329 45.733175 12.797683
LeftArm 71.854008 34.924530 -47.148223
LeftForeArm 8.552241 -0.000000 9.268605
LeftHand -19.071747 0.000000 -7.889569
LeftHandThumb1 -26.253704 0.000000 33.147579
RightShoulder -16.216741 -13.293272 -45.798574
RightArm 116.601404 49.190067 122.874220
RightForeArm 70.459717 0.000000 117.793244
RightHand 23.553431 -0.000000 -9.656130
RightHandThumb1 -24.326973 -0.000000 -32.862282
LeftUpLeg -31.705727 9.190586 -3.679483
LeftLeg -0.535755 -0.000000 0.000000
LeftFoot -2.629166 1.600518 -2.847181
LeftToeBase 1.592900 -0.000000 -0.000000
RightUpLeg -32.937274 -8.444922 3.367284
RightLeg -2.636269 -0.000000 0.000000
RightFoot -4.409913 -3.071601 18.441600
RightToeBase 15.905646 -0.000000 -0.000000
1278
root -0.694413 32.786668 -3.693081 38.011336 -4.117321 0.406206
Spine -44.762518 -4.190450 1.594449
Head 8.681025 -4.024485 -6.897359
LeftShoulder -7.310963 45.738329 12.806638
LeftArm 71.886389 34.932784 -47.131269
LeftForeArm 8.484961 -0.000000 9.365380
LeftHand -18.889164 -0.000000 -8.086394
LeftHandThumb1 -26.253704 0.000000 33.147579
RightShoulder -16.174804 -13.300828 -45.824665
RightArm 116.628967 49.225266 122.961379
RightForeArm 70.500649 0.000000 117.858945
RightHand 23.555720 -0.000000 -9.700667
RightHandThumb1 -24.326973 -0.000000 -32.862282
LeftUpLeg -31.726761 9.188021 -3.678744
LeftLeg -0.537040 -0.000000 0.000000
LeftFoot -2.636142 1.596729 -2.856622
LeftToeBase 1.645767 -0.000000 -0.000000
RightUpLeg -32.956702 -8.440892 3.372792
RightLeg -2.643194 -0.000000 0.000000
RightFoot -4.396145 -3.077230 18.431619
RightToeBase 15.897748 -0.000000 -0.000000
1279
root -0.693662 32.786579 -3.693776 38.021802 -4.108209 0.405889
Spine -44.760335 -4.178591 1.566523
Head 8.530386 -4.146142 -6.721803
LeftShoulder -7.332122 45.761829 12.792896
LeftArm 71.905382 34.915052 -47.146097
LeftForeArm 8.568044 -0.000000 9.465341
LeftHand -18.979855 -0.000000 -7.880850
LeftHandThumb1 -26.253704 0.000000 33.147579
RightShoulder -16.160838 -13.300187 -45.813690
RightArm 116.639183 49.206504 122.980300
RightForeArm 70.557846 0.000000 117.914086
RightHand 23.586054 -0.000000 -9.708872
RightHandThumb1 -24.326973 -0.000000 -32.862282
LeftUpLeg -31.740693 9.178209 -3.673868
LeftLeg -0.533257 -0.000000 0.000000
LeftFoot -2.629386 1.596067 -2.840594
LeftToeBase 1.565399 -0.000000 -0.000000
RightUpLeg -32.964298 -8.454114 3.385238
RightLeg -2.653579 -0.000000 0.000000
RightFoot -4.397697 -3.068432 18.452648
RightToeBase 15.911846 -0.000000 -0.000000
1280
root -0.691909 32.786772 -3.696068 38.040983 -4.091674 0.413356
Spine -44.761768 -4.160144 1.531092
Head 8.387018 -4.262332 -6.589428
LeftShoulder -7.329389 45.777550 12.784762
LeftArm 71.939259 34.894486 -47.122520
LeftForeArm 8.576946 -0.000000 9.571369
LeftHand -19.028883 -0.000000 -7.790390
LeftHandThumb1 -26.253704 0.000000 33.147579
RightShoulder -16.175072 -13.294461 -45.808282
RightArm 116.637056 49.173838 122.989078
RightForeArm 70.605587 -0.000000 117.981645
RightHand 23.582335 0.000000 -9.627059
RightHandThumb1 -24.326973 -0.000000 -32.862282
LeftUpLeg -31.767009 9.141527 -3.665996
LeftLeg -0.526807 -0.000000 0.000000
LeftFoot -2.638741 1.617465 -2.855611
LeftToeBase 1.628661 -0.000000 -0.000000
RightUpLeg -32.986812 -8.462883 3.384211
RightLeg -2.654282 -0.000000 0.000000
RightFoot -4.388897 -3.076658 18.479608
RightToeBase 15.876631 -0.000000 -0.000000
1281
root -0.691150 32.786671 -3.697348 38.056209 -4.084853 0.414077
Spine -44.762266 -4.142050 1.496608
Head 8.245182 -4.361194 -6.453448
LeftShoulder -7.344037 45.793588 12.773256
LeftArm 71.972346 34.872304 -47.123437
LeftForeArm 8.588714 -0.000000 9.638682
LeftHand -19.005213 0.000000 -7.739134
LeftHandThumb1 -26.253704 0.000000 33.147579
RightShoulder -16.167565 -13.250984 -45.822922
RightArm 116.578943 49.189159 122.980576
RightForeArm 70.608976 -0.000000 118.074129
RightHand 23.588438 0.000000 -9.608079
RightHandThumb1 -24.326973 -0.000000 -32.862282
LeftUpLeg -31.787537 9.135743 -3.666647
LeftLeg -0.520905 -0.000000 0.000000
LeftFoot -2.642545 1.608386 -2.871122
LeftToeBase 1.628637 -0.000000 -0.000000
RightUpLeg -33.007040 -8.473384 3.394561
RightLeg -2.648258 -0.000000 0.000000
RightFoot -4.395139 -3.076134 18.444582
RightToeBase 15.881501 -0.000000 -0.000000
1282
root -0.690072 32.786198 -3.698824 38.070244 -4.068571 0.415943
Spine -44.762815 -4.119458 1.462941
Head 8.117324 -4.467665 -6.340080
LeftShoulder -7.339901 45.788852 12.766804
LeftArm 71.992904 34.858988 -47.119225
LeftForeArm 8.612459 -0.000000 9.713279
LeftHand -19.050244 0.000000 -7.647056
LeftHandThumb1 -26.253704 0.000000 33.147579
RightShoulder -16.170824 -13.216924 -45.827152
RightArm 116.554731 49.188179 122.975797
RightForeArm 70.554190 0.000000 118.153273
RightHand 23.560801 -0.000000 -9.570193
RightHandThumb1 -24.326973 -0.000000 -32.862282
LeftUpLeg -31.806607 9.127156 -3.667804
LeftLeg -0.520668 -0.000000 0.000000
LeftFoot -2.642752 1.605828 -2.851322
LeftToeBase 1.616019 -0.000000 -0.000000
RightUpLeg -33.022483 -8.495724 3.407759
RightLeg -2.650817 -0.000000 0.000000
RightFoot -4.400041 -3.070520 18.430301
RightToeBase 15.909244 -0.000000 -0.000000
1283
root -0.689218 32.785848 -3.700788 38.083017 -4.060175 0.412949
Spine -44.758141 -4.102683 1.437438
Head 7.974633 -4.560440 -6.181191
LeftShoulder -7.365695 45.786608 12.739526
LeftArm 72.005925 34.835732 -47.132603
LeftForeArm 8.657605 -0.000000 9.780608
LeftHand -19.073301 -0.000000 -7.572864
LeftHandThumb1 -26.253704 0.000000 33.147579
RightShoulder -16.176874 -13.203787 -45.807975
RightArm 116.583356 49.164681 122.996796
RightForeArm 70.481746 0.000000 118.227016
RightHand 23.552868 -0.000000 -9.549210
RightHandThumb1 -24.326973 -0.000000 -32.862282
LeftUpLeg -31.825354 9.122281 -3.669400
LeftLeg -0.523808 -0.000000 0.000000
LeftFoot -2.641982 1.620786 -2.896478
LeftToeBase 1.613492 -0.000000 -0.000000
RightUpLeg -33.037001 -8.486222 3.406784
RightLeg -2.652565 -0.000000 0.000000
RightFoot -4.398633 -3.077387 18.489693
RightToeBase 15.905573 -0.000000 -0.000000
1284
root -0.688377 32.785622 -3.703047 38.104467 -4.046972 0.414451
Spine -44.765633 -4.079982 1.403652
Head 7.856068 -4.652887 -6.057851
LeftShoulder -7.357749 45.780008 12.729218
LeftArm 72.031180 34.811453 -47.117163
LeftForeArm 8.665229 -0.000000 9.840306
LeftHand -19.056133 -0.000000 -7.513621
LeftHandThumb1 -26.253704 0.000000 33.147579
RightShoulder -16.192496 -13.197590 -45.803086
RightArm 116.596837 49.130090 123.018347
RightForeArm 70.368550 -0.000000 118.296881
RightHand 23.508748 0.000000 -9.505437
RightHandThumb1 -24.326973 -0.000000 -32.862282
LeftUpLeg -31.852482 9.104825 -3.661028
LeftLeg -0.513423 -0.000000 0.000000
LeftFoot -2.651216 1.606982 -2.844610
LeftToeBase 1.606515 -0.000000 -0.000000
RightUpLeg -33.064244 -8.497516 3.416527
RightLeg -2.645625 -0.000000 0.000000
RightFoot -4.401833 -3.072882 18.466697
RightToeBase 15.917397 -0.000000 -0.000000
1285
root -0.687361 32.785802 -3.707333 38.157495 -3.987242 0.408632
Spine -44.804900 -4.084005 1.410253
Head 7.743170 -4.758024 -5.935951
LeftShoulder -7.336779 45.757041 12.733506
LeftArm 71.995139 34.787021 -47.189760
LeftForeArm 8.663925 0.000000 9.911590
LeftHand -18.916888 0.000000 -7.751358
LeftHandThumb1 -26.253704 0.000000 33.147579
RightShoulder -16.197646 -13.196363 -45.772695
RightArm 116.650307 49.112238 123.020699
RightForeArm 70.292525 0.000000 118.351094
RightHand 23.531549 -0.000000 -9.600341
RightHandThumb1 -24.326973 -0.000000 -32.862282
LeftUpLeg -31.927929 9.056605 -3.633625
LeftLeg -0.496702 -0.000000 0.000000
LeftFoot -2.655849 1.622495 -2.884468
LeftToeBase 1.626005 -0.000000 -0.000000
RightUpLeg -33.118439 -8.522158 3.455315
RightLeg -2.648704 -0.000000 0.000000
RightFoot -4.405162 -3.109921 18.458595
RightToeBase 15.927226 -0.000000 -0.000000
